# xmcd
#
# Track frame offsets: 
#        150
#        9959
#        21448
#        30195
#        38891
#        50735
#        64096
#        75559
#        88222
#        100025
#        111536
#        122849
#        132339
#        143693
#        155530
#        166187
#        176112
#        185053
#        196480
#        207071
#        216116
#        225503
#        235999
#        246812
#        256718
#        267536
#        279903
#        293145
#        307805
#        319172
#        327859
#
# Disc length: 4482 seconds
#
# Revision: 0
# Processed by: cddbd v1.5.2PL0 Copyright (c) Steve Scherf et al.
# Submitted via: ExactAudioCopy v1.0b3
#
DISCID=b611801f
DTITLE=Johnny Horton - The Singing Fisherman [Disc 5]
DYEAR=2014
DGENRE=Country
TTITLE0=Counterfeit Love [1958]
TTITLE1=Mister Moonlight [1959]
TTITLE2=All Grown Up (Take 3) [1958]
TTITLE3=Got The Bull By The Horns (Take 4) [1990]
TTITLE4=When It's Springtime In Alaska (It's Forty Below) [1959]
TTITLE5=Whispering Pines [1959]
TTITLE6=The Battle Of New Orleans [1959]
TTITLE7=All For The Love Of A Girl [1959]
TTITLE8=Lost Highway [1959]
TTITLE9=Sam Magee [1959]
TTITLE10=Cherokee Boogie [1959]
TTITLE11=The Golden Rocket [1959]
TTITLE12=The Battle Of New Orleans (British Version) [1959]
TTITLE13=Joe's Been A-Gittin' There [1959]
TTITLE14=The First Train Headin' South [1959]
TTITLE15=Got The Bull By The Horns (Single Version) [1959]
TTITLE16=Sal's Got A Sugarlip (Rock and Roll Version) [1981]
TTITLE17=Words [1960]
TTITLE18=Johnny Reb [1959]
TTITLE19=Sal's Got A Sugarlip [1959]
TTITLE20=Ole Slew-Foot [1990]
TTITLE21=I'm Ready If You're Willing [1959]
TTITLE22=Take Me Like I Am [1959]
TTITLE23=They Shined Up Rudolph's Nose [1959]
TTITLE24=The Electrified Donkey [1959]
TTITLE25=The Same Old Tale The Crow Told Me (1959 Version) [1964]
TTITLE26=Sink The Bismark (First Version) [1991]
TTITLE27=Sink The Bismark [1960]
TTITLE28=The Same Old Tale The Crow Told Me (1960 Version) [1960]
TTITLE29=All Grown Up [1991]
TTITLE30=Got The Bull By The Horns [1991]
EXTD=
EXTT0=
EXTT1=
EXTT2=
EXTT3=
EXTT4=
EXTT5=
EXTT6=
EXTT7=
EXTT8=
EXTT9=
EXTT10=
EXTT11=
EXTT12=
EXTT13=
EXTT14=
EXTT15=
EXTT16=
EXTT17=
EXTT18=
EXTT19=
EXTT20=
EXTT21=
EXTT22=
EXTT23=
EXTT24=
EXTT25=
EXTT26=
EXTT27=
EXTT28=
EXTT29=
EXTT30=
PLAYORDER=
